# xmcd CD database file generated by OrangeCD 5.2
#
# Track frame offsets:
#	183
#	12028
#	23243
#	32650
#	42305
#	51560
#	60203
#	77318
#	89798
#	102838
#	111905
#	122175
#	131355
#	139560
#	149405
#	157863
#	167300
#	178300
#	187388
#	199230
#	208728
#	218333
#	228825
#	236780
#	245208
#	253398
#	262405
#	272400
#	281435
#	295820
#
# Disc length: 4117 seconds
#
# Revision: 1
# Processed by: cddbd v1.5.1PL0 Copyright (c) Steve Scherf et al.
# Submitted via: OrangeCD 5.2
#
DISCID=bf10131e
DTITLE=Jerry Lee Lewis - The Sun Years - cd 2
DYEAR=1989
DGENRE=Blues
TTITLE0=My Ole Pal Of Yesterday
TTITLE1=It'll Be Me-1
TTITLE2=Pumpin' Piano Rock
TTITLE3=You Win Again
TTITLE4=Love Letters In The Sand
TTITLE5=Little Green Valley
TTITLE6=It'll Be Me-2
TTITLE7=It'll Be Me-3
TTITLE8=Whole Lotta Shakin' Going On
TTITLE9=Lewis Boogie
TTITLE10=It'll Be Me
TTITLE11=All Night Long
TTITLE12=Sixty Minute Man
TTITLE13=I Don't Love Nobody
TTITLE14=My Carolina Sunshine Girl
TTITLE15=Long Gone Lonesome Blues
TTITLE16=You Are My Sunshine
TTITLE17=Lewis Boogie-2
TTITLE18=Drinkin' Wine Spo-Dee-O-Dee
TTITLE19=Honey Hush
TTITLE20=Singing The Blues
TTITLE21=rockin' With Red (She Knows How To Rock Me)
TTITLE22=Matchbox-1
TTITLE23=Matchbox-2
TTITLE24=Ubangi Stomp
TTITLE25=Rock 'N' Roll Ruby
TTITLE26=So Long I'm Gone
TTITLE27=Ooby Dooby
TTITLE28=I Forgot To Remember To Forget
TTITLE29=You Win Again
EXTD=
EXTT0=
EXTT1=
EXTT2=
EXTT3=
EXTT4=
EXTT5=
EXTT6=
EXTT7=
EXTT8=
EXTT9=
EXTT10=
EXTT11=
EXTT12=
EXTT13=
EXTT14=
EXTT15=
EXTT16=
EXTT17=
EXTT18=
EXTT19=
EXTT20=
EXTT21=
EXTT22=
EXTT23=
EXTT24=
EXTT25=
EXTT26=
EXTT27=
EXTT28=
EXTT29=
PLAYORDER=
